<svg width="24" height="24" viewBox="0 0 24 24" fill="none" xmlns="http://www.w3.org/2000/svg">
<path d="M5 23.7008C4.45 23.7008 3.979 23.5048 3.587 23.1128C3.19567 22.7214 3 22.2508 3 21.7008V7.70078C3 7.15078 3.19567 6.67978 3.587 6.28778C3.979 5.89645 4.45 5.70078 5 5.70078H13.925L11.925 7.70078H5V21.7008H19V14.7508L21 12.7508V21.7008C21 22.2508 20.8043 22.7214 20.413 23.1128C20.021 23.5048 19.55 23.7008 19 23.7008H5ZM16.175 6.27578L17.6 7.67578L11 14.2758V15.7008H12.4L19.025 9.07578L20.45 10.4758L13.25 17.7008H9V13.4508L16.175 6.27578ZM20.45 10.4758L16.175 6.27578L18.675 3.77578C19.075 3.37578 19.5543 3.17578 20.113 3.17578C20.671 3.17578 21.1417 3.37578 21.525 3.77578L22.925 5.20078C23.3083 5.58411 23.5 6.05078 23.5 6.60078C23.5 7.15078 23.3083 7.61745 22.925 8.00078L20.45 10.4758Z" fill="black"/>
</svg>
