<svg width="24" height="24" viewBox="0 0 24 24" fill="none" xmlns="http://www.w3.org/2000/svg">
<path d="M4.99941 21C4.71608 21 4.45775 20.9127 4.22441 20.738C3.99108 20.5627 3.83275 20.3333 3.74941 20.05L0.949413 9.95C0.86608 9.71667 0.903413 9.5 1.06141 9.3C1.22008 9.1 1.43275 9 1.69941 9H6.74941L11.1494 2.45C11.2327 2.31667 11.3494 2.20833 11.4994 2.125C11.6494 2.04167 11.8077 2 11.9744 2C12.1411 2 12.2994 2.04167 12.4494 2.125C12.5994 2.20833 12.7161 2.31667 12.7994 2.45L17.1994 9H22.2994C22.5661 9 22.7787 9.1 22.9374 9.3C23.0954 9.5 23.1327 9.71667 23.0494 9.95L20.2494 20.05C20.1661 20.3333 20.0077 20.5627 19.7744 20.738C19.5411 20.9127 19.2827 21 18.9994 21H4.99941ZM5.49941 19H18.4994L20.6994 11H3.29941L5.49941 19ZM11.9994 17C12.5494 17 13.0204 16.8043 13.4124 16.413C13.8037 16.021 13.9994 15.55 13.9994 15C13.9994 14.45 13.8037 13.979 13.4124 13.587C13.0204 13.1957 12.5494 13 11.9994 13C11.4494 13 10.9787 13.1957 10.5874 13.587C10.1954 13.979 9.99941 14.45 9.99941 15C9.99941 15.55 10.1954 16.021 10.5874 16.413C10.9787 16.8043 11.4494 17 11.9994 17ZM9.17441 9H14.7994L11.9744 4.8L9.17441 9ZM5.49941 19H18.4994H5.49941Z" fill="black"/>
</svg>
