<svg width="24" height="24" viewBox="0 0 24 24" fill="none" xmlns="http://www.w3.org/2000/svg">
<path d="M16.1 13.3008L14.65 11.8508C14.8 11.0674 14.575 10.3341 13.975 9.65078C13.375 8.96745 12.6 8.70078 11.65 8.85078L10.2 7.40078C10.4833 7.26745 10.7707 7.16745 11.062 7.10078C11.354 7.03411 11.6667 7.00078 12 7.00078C13.25 7.00078 14.3127 7.43811 15.188 8.31278C16.0627 9.18811 16.5 10.2508 16.5 11.5008C16.5 11.8341 16.4667 12.1468 16.4 12.4388C16.3333 12.7301 16.2333 13.0174 16.1 13.3008ZM19.3 16.4508L17.85 15.0508C18.4833 14.5674 19.046 14.0381 19.538 13.4628C20.0293 12.8881 20.45 12.2341 20.8 11.5008C19.9667 9.81745 18.7707 8.47978 17.212 7.48778C15.654 6.49645 13.9167 6.00078 12 6.00078C11.5167 6.00078 11.0417 6.03411 10.575 6.10078C10.1083 6.16745 9.65 6.26745 9.2 6.40078L7.65 4.85078C8.33333 4.56745 9.03333 4.35478 9.75 4.21278C10.4667 4.07145 11.2167 4.00078 12 4.00078C14.5167 4.00078 16.7583 4.69645 18.725 6.08778C20.6917 7.47978 22.1167 9.28411 23 11.5008C22.6167 12.4841 22.1127 13.3968 21.488 14.2388C20.8627 15.0801 20.1333 15.8174 19.3 16.4508ZM19.8 22.6008L15.6 18.4508C15.0167 18.6341 14.4293 18.7718 13.838 18.8638C13.246 18.9551 12.6333 19.0008 12 19.0008C9.48333 19.0008 7.24167 18.3051 5.275 16.9138C3.30833 15.5218 1.88333 13.7174 1 11.5008C1.35 10.6174 1.79167 9.79645 2.325 9.03778C2.85833 8.27978 3.46667 7.60078 4.15 7.00078L1.4 4.20078L2.8 2.80078L21.2 21.2008L19.8 22.6008ZM5.55 8.40078C5.06667 8.83411 4.625 9.30911 4.225 9.82578C3.825 10.3424 3.48333 10.9008 3.2 11.5008C4.03333 13.1841 5.229 14.5214 6.787 15.5128C8.34567 16.5048 10.0833 17.0008 12 17.0008C12.3333 17.0008 12.6583 16.9801 12.975 16.9388C13.2917 16.8968 13.6167 16.8508 13.95 16.8008L13.05 15.8508C12.8667 15.9008 12.6917 15.9381 12.525 15.9628C12.3583 15.9881 12.1833 16.0008 12 16.0008C10.75 16.0008 9.68733 15.5634 8.812 14.6888C7.93733 13.8134 7.5 12.7508 7.5 11.5008C7.5 11.3174 7.51233 11.1424 7.537 10.9758C7.56233 10.8091 7.6 10.6341 7.65 10.4508L5.55 8.40078Z" fill="black"/>
</svg>
