<svg width="24" height="24" viewBox="0 0 24 24" fill="none" xmlns="http://www.w3.org/2000/svg">
<path d="M19.4234 20.45C17.4901 20.45 15.5694 19.9873 13.6614 19.062C11.7528 18.1373 10.0484 16.925 8.54844 15.425C7.04844 13.925 5.8361 12.225 4.91144 10.325C3.9861 8.425 3.52344 6.5 3.52344 4.55C3.52344 4.25 3.62344 4 3.82344 3.8C4.02344 3.6 4.27344 3.5 4.57344 3.5H7.82344C8.0901 3.5 8.3191 3.579 8.51044 3.737C8.70244 3.89567 8.82344 4.1 8.87344 4.35L9.44844 7.3C9.48177 7.55 9.47344 7.775 9.42344 7.975C9.37344 8.175 9.2651 8.35 9.09844 8.5L6.79844 10.75C7.59844 12.0833 8.5441 13.2917 9.63544 14.375C10.7274 15.4583 11.9651 16.4 13.3484 17.2L15.5734 14.95C15.7401 14.7833 15.9361 14.6667 16.1614 14.6C16.3861 14.5333 16.6151 14.5167 16.8484 14.55L19.6234 15.125C19.8734 15.175 20.0778 15.2917 20.2364 15.475C20.3944 15.6583 20.4734 15.8833 20.4734 16.15V19.4C20.4734 19.7 20.3734 19.95 20.1734 20.15C19.9734 20.35 19.7234 20.45 19.4234 20.45ZM6.09844 9.325L7.87344 7.625C7.90677 7.59167 7.92777 7.554 7.93644 7.512C7.94444 7.47067 7.9401 7.43333 7.92344 7.4L7.49844 5.15C7.48177 5.1 7.45677 5.06233 7.42344 5.037C7.3901 5.01233 7.34844 5 7.29844 5H5.17344C5.12344 5 5.08577 5.01233 5.06044 5.037C5.03577 5.06233 5.02344 5.09167 5.02344 5.125C5.07344 5.80833 5.1861 6.504 5.36144 7.212C5.5361 7.92067 5.78177 8.625 6.09844 9.325ZM14.7484 17.9C15.4151 18.2167 16.1068 18.4583 16.8234 18.625C17.5401 18.7917 18.2151 18.8833 18.8484 18.9C18.8818 18.9 18.9111 18.8873 18.9364 18.862C18.9611 18.8373 18.9734 18.8083 18.9734 18.775V16.675C18.9734 16.625 18.9611 16.5833 18.9364 16.55C18.9111 16.5167 18.8734 16.4917 18.8234 16.475L16.7234 16.05C16.6901 16.0333 16.6568 16.0333 16.6234 16.05L16.5234 16.1L14.7484 17.9Z" fill="#121212"/>
</svg>
