<svg width="24" height="24" viewBox="0 0 24 24" fill="none" xmlns="http://www.w3.org/2000/svg">
<path d="M5.3 23.2008C4.8 23.2008 4.375 23.0258 4.025 22.6758C3.675 22.3258 3.5 21.9008 3.5 21.4008V8.00078C3.5 7.50078 3.675 7.07578 4.025 6.72578C4.375 6.37578 4.8 6.20078 5.3 6.20078H13.85L12.35 7.70078H5.3C5.23333 7.70078 5.16667 7.73411 5.1 7.80078C5.03333 7.86745 5 7.93411 5 8.00078V21.4008C5 21.4674 5.03333 21.5341 5.1 21.6008C5.16667 21.6674 5.23333 21.7008 5.3 21.7008H18.7C18.7667 21.7008 18.8333 21.6674 18.9 21.6008C18.9667 21.5341 19 21.4674 19 21.4008V14.3258L20.5 12.8258V21.4008C20.5 21.9008 20.325 22.3258 19.975 22.6758C19.625 23.0258 19.2 23.2008 18.7 23.2008H5.3ZM16.525 6.62578L17.6 7.67578L11 14.2758V15.7008H12.4L19.05 9.07578L20.1 10.1258L13.05 17.2008H9.5V13.6508L16.525 6.62578ZM20.1 10.1258L16.525 6.62578L18.825 4.32578C19.175 3.97578 19.6043 3.80078 20.113 3.80078C20.621 3.80078 21.05 3.98411 21.4 4.35078L22.375 5.32578C22.7083 5.67578 22.875 6.10078 22.875 6.60078C22.875 7.10078 22.7 7.52578 22.35 7.87578L20.1 10.1258Z" fill="#121212"/>
</svg>
