<svg width="24" height="24" viewBox="0 0 24 24" fill="none" xmlns="http://www.w3.org/2000/svg">
<path d="M12 11.7187C12.4989 11.7187 12.9249 11.5441 13.2779 11.1949C13.6303 10.845 13.8065 10.4228 13.8065 9.92839C13.8065 9.43393 13.6303 9.01176 13.2779 8.66189C12.9249 8.3127 12.4989 8.13811 12 8.13811C11.5011 8.13811 11.0751 8.3127 10.7221 8.66189C10.3697 9.01176 10.1935 9.43393 10.1935 9.92839C10.1935 10.4228 10.3697 10.845 10.7221 11.1949C11.0751 11.5441 11.5011 11.7187 12 11.7187ZM12 19.954C14.1333 18.0784 15.7419 16.2837 16.8258 14.5698C17.9097 12.8566 18.4516 11.3777 18.4516 10.133C18.4516 8.18926 17.8281 6.60358 16.5812 5.37596C15.3335 4.14834 13.8065 3.53453 12 3.53453C10.1935 3.53453 8.66649 4.14834 7.41884 5.37596C6.17187 6.60358 5.54839 8.18926 5.54839 10.133C5.54839 11.3777 6.09032 12.8566 7.17419 14.5698C8.25806 16.2837 9.86667 18.0784 12 19.954ZM12 22C9.31613 19.6812 7.31183 17.5328 5.9871 15.555C4.66237 13.5772 4 11.7698 4 10.133C4 7.6607 4.80447 5.68696 6.41342 4.21176C8.02168 2.73726 9.88387 2 12 2C14.1161 2 15.9787 2.73726 17.5876 4.21176C19.1959 5.68696 20 7.6607 20 10.133C20 11.7698 19.3376 13.5772 18.0129 15.555C16.6882 17.5328 14.6839 19.6812 12 22Z" fill="#121212"/>
</svg>
