<svg width="24" height="24" viewBox="0 0 24 24" fill="none" xmlns="http://www.w3.org/2000/svg">
<path d="M15.5 21L9.5 18.8876L5.2 20.5725C4.9 20.6898 4.625 20.6563 4.375 20.4719C4.125 20.2875 4 20.0444 4 19.7426V6.53994C4 6.33876 4.05433 6.15836 4.163 5.99876C4.271 5.83982 4.41667 5.72682 4.6 5.65976L9.5 4L15.5 6.11243L19.8 4.42751C20.1 4.31016 20.375 4.33531 20.625 4.50296C20.875 4.67061 21 4.91371 21 5.23225V18.4852C21 18.7032 20.9417 18.8876 20.825 19.0385C20.7083 19.1893 20.55 19.2983 20.35 19.3654L15.5 21ZM14.75 19.1642V7.39497L10.25 5.81065V17.5799L14.75 19.1642ZM16.25 19.1642L19.5 18.0828V6.16272L16.25 7.39497V19.1642ZM5.5 18.8373L8.75 17.5799V5.81065L5.5 6.91716V18.8373ZM16.25 7.39497V19.1642V7.39497ZM8.75 5.81065V17.5799V5.81065Z" fill="#121212"/>
</svg>
