<svg width="24" height="24" viewBox="0 0 24 24" fill="none" xmlns="http://www.w3.org/2000/svg">
<path d="M4.57344 20.45C4.27344 20.45 4.02344 20.35 3.82344 20.15C3.62344 19.95 3.52344 19.7 3.52344 19.4V16.15C3.52344 15.8833 3.60277 15.6583 3.76144 15.475C3.91944 15.2917 4.12344 15.175 4.37344 15.125L7.14844 14.55C7.38177 14.5167 7.6111 14.5333 7.83644 14.6C8.0611 14.6667 8.25677 14.7833 8.42344 14.95L10.6484 17.2C12.0318 16.4 13.2694 15.4583 14.3614 14.375C15.4528 13.2917 16.3984 12.0833 17.1984 10.75L14.8984 8.5C14.7318 8.35 14.6234 8.175 14.5734 7.975C14.5234 7.775 14.5151 7.55 14.5484 7.3L15.1234 4.35C15.1734 4.1 15.2944 3.89567 15.4864 3.737C15.6778 3.579 15.9068 3.5 16.1734 3.5H19.4234C19.7234 3.5 19.9734 3.6 20.1734 3.8C20.3734 4 20.4734 4.25 20.4734 4.55C20.4734 6.5 20.0108 8.425 19.0854 10.325C18.1608 12.225 16.9484 13.925 15.4484 15.425C13.9484 16.925 12.2484 18.1373 10.3484 19.062C8.44844 19.9873 6.52344 20.45 4.57344 20.45ZM17.8984 9.325C18.2151 8.625 18.4611 7.92067 18.6364 7.212C18.8111 6.504 18.9234 5.80833 18.9734 5.125C18.9734 5.09167 18.9611 5.06233 18.9364 5.037C18.9111 5.01233 18.8734 5 18.8234 5H16.6984C16.6484 5 16.6068 5.01233 16.5734 5.037C16.5401 5.06233 16.5151 5.1 16.4984 5.15L16.0734 7.4C16.0568 7.43333 16.0524 7.47067 16.0604 7.512C16.0691 7.554 16.0901 7.59167 16.1234 7.625L17.8984 9.325ZM9.24844 17.9L7.47344 16.1L7.37344 16.05C7.3401 16.0333 7.30677 16.0333 7.27344 16.05L5.17344 16.475C5.12344 16.4917 5.08577 16.5167 5.06044 16.55C5.03577 16.5833 5.02344 16.625 5.02344 16.675V18.775C5.02344 18.8083 5.03577 18.8373 5.06044 18.862C5.08577 18.8873 5.1151 18.9 5.14844 18.9C5.78177 18.8833 6.45677 18.7917 7.17344 18.625C7.8901 18.4583 8.58177 18.2167 9.24844 17.9Z" fill="#121212"/>
</svg>
