<svg width="24" height="24" viewBox="0 0 24 24" fill="none" xmlns="http://www.w3.org/2000/svg">
<path d="M5.73145 21C5.48077 21 5.25949 20.923 5.06763 20.7689C4.87511 20.6148 4.74542 20.4094 4.67857 20.1526L2.04635 10.5492C1.96279 10.3438 1.99221 10.151 2.1346 9.97096C2.27632 9.79155 2.47252 9.70185 2.72321 9.70185H7.73695L11.8733 3.35949C11.9401 3.25678 12.028 3.17118 12.137 3.10271C12.2453 3.03424 12.3663 3 12.5 3C12.617 3 12.734 3.03424 12.851 3.10271C12.9679 3.17118 13.0515 3.25678 13.1016 3.35949L17.238 9.70185H22.2768C22.5275 9.70185 22.7237 9.79155 22.8654 9.97096C23.0078 10.151 23.0372 10.3438 22.9536 10.5492L20.3214 20.1526C20.2379 20.4094 20.0918 20.6148 19.8832 20.7689C19.674 20.923 19.444 21 19.1933 21H5.73145ZM5.98214 19.4593H19.0179L21.2239 11.2425H3.77609L5.98214 19.4593ZM12.5 16.8916C12.9178 16.8916 13.2728 16.7416 13.5649 16.4417C13.8577 16.1425 14.0041 15.7789 14.0041 15.3509C14.0041 14.923 13.8577 14.5594 13.5649 14.2601C13.2728 13.9602 12.9178 13.8103 12.5 13.8103C12.0822 13.8103 11.7272 13.9602 11.4351 14.2601C11.1423 14.5594 10.9959 14.923 10.9959 15.3509C10.9959 15.7789 11.1423 16.1425 11.4351 16.4417C11.7272 16.7416 12.0822 16.8916 12.5 16.8916ZM9.56696 9.70185H15.433L12.4749 5.1826L9.56696 9.70185ZM5.98214 19.4593H19.0179H5.98214Z" fill="#121212"/>
</svg>
