<svg width="24" height="24" viewBox="0 0 24 24" fill="none" xmlns="http://www.w3.org/2000/svg">
<path d="M8.71654 22C8.22752 22 7.81033 21.832 7.46497 21.496C7.11895 21.1593 6.94593 20.753 6.94593 20.2772C6.94593 19.8014 7.11895 19.3951 7.46497 19.0584C7.81033 18.7224 8.22752 18.5544 8.71654 18.5544C9.20557 18.5544 9.62276 18.7224 9.96811 19.0584C10.3141 19.3951 10.4872 19.8014 10.4872 20.2772C10.4872 20.753 10.3141 21.1593 9.96811 21.496C9.62276 21.832 9.20557 22 8.71654 22ZM18.5308 22C18.0418 22 17.6246 21.832 17.2792 21.496C16.9332 21.1593 16.7602 20.753 16.7602 20.2772C16.7602 19.8014 16.9332 19.3951 17.2792 19.0584C17.6246 18.7224 18.0418 18.5544 18.5308 18.5544C19.0198 18.5544 19.437 18.7224 19.7824 19.0584C20.1284 19.3951 20.3014 19.8014 20.3014 20.2772C20.3014 20.753 20.1284 21.1593 19.7824 21.496C19.437 21.832 19.0198 22 18.5308 22ZM7.57829 6.4456L10.133 11.6632H17.0384C17.089 11.6632 17.1396 11.6507 17.1902 11.6258C17.2408 11.6015 17.2745 11.5648 17.2914 11.5155L20.0232 6.71632C20.0569 6.65069 20.0569 6.58933 20.0232 6.53223C19.9894 6.47447 19.9388 6.4456 19.8714 6.4456H7.57829ZM6.84475 4.96891H20.8832C21.3047 4.96891 21.6211 5.14119 21.8322 5.48575C22.0427 5.83031 22.0551 6.18307 21.8696 6.54404L18.6067 12.2539C18.4549 12.5328 18.2401 12.7501 17.9622 12.9056C17.6836 13.0618 17.3841 13.1399 17.0637 13.1399H9.67773L8.51419 15.2319C8.4636 15.3139 8.45955 15.3959 8.50205 15.478C8.54387 15.56 8.61536 15.601 8.71654 15.601H20.3014V17.0777H8.71654C8.04202 17.0777 7.53614 16.7949 7.19888 16.2291C6.86162 15.6627 6.85319 15.1006 7.17358 14.5427L8.61536 12.0078L4.92238 4.47668H3V3H5.88357L6.84475 4.96891ZM10.133 11.6632H17.2155H10.133Z" fill="#121212"/>
</svg>
