<svg width="24" height="24" viewBox="0 0 24 24" fill="none" xmlns="http://www.w3.org/2000/svg">
<path d="M12 16.9231C13.7975 15.5043 15.1543 14.1409 16.0704 12.8328C16.9864 11.5255 17.4444 10.2735 17.4444 9.07692C17.4444 8.06838 17.2585 7.20923 16.8865 6.49949C16.5153 5.79043 16.0576 5.21778 15.5135 4.78154C14.9687 4.34598 14.3765 4.02974 13.737 3.83282C13.0975 3.63658 12.5185 3.53846 12 3.53846C11.4815 3.53846 10.9025 3.63658 10.263 3.83282C9.62346 4.02974 9.03165 4.34598 8.48756 4.78154C7.94277 5.21778 7.4844 5.79043 7.11244 6.49949C6.74119 7.20923 6.55556 8.06838 6.55556 9.07692C6.55556 10.2735 7.01358 11.5255 7.92963 12.8328C8.84568 14.1409 10.2025 15.5043 12 16.9231ZM12 18.8718C9.64938 17.1282 7.89506 15.4485 6.73704 13.8328C5.57901 12.2178 5 10.6325 5 9.07692C5 7.91453 5.2119 6.89299 5.6357 6.01231C6.05881 5.13231 6.60326 4.39316 7.26904 3.79487C7.93412 3.19658 8.68598 2.74803 9.52459 2.44923C10.3625 2.14974 11.1877 2 12 2C12.8123 2 13.6378 2.14974 14.4764 2.44923C15.3144 2.74803 16.0659 3.19658 16.731 3.79487C17.3967 4.39316 17.9415 5.13231 18.3653 6.01231C18.7884 6.89299 19 7.91453 19 9.07692C19 10.6325 18.421 12.2178 17.263 13.8328C16.1049 15.4485 14.3506 17.1282 12 18.8718ZM12 10.7179C12.5012 10.7179 12.9292 10.5429 13.2839 10.1928C13.6378 9.84205 13.8148 9.4188 13.8148 8.92308C13.8148 8.42735 13.6378 8.0041 13.2839 7.65333C12.9292 7.30325 12.5012 7.12821 12 7.12821C11.4988 7.12821 11.0708 7.30325 10.7161 7.65333C10.3622 8.0041 10.1852 8.42735 10.1852 8.92308C10.1852 9.4188 10.3622 9.84205 10.7161 10.1928C11.0708 10.5429 11.4988 10.7179 12 10.7179ZM5 22V20.4615H19V22H5Z" fill="#121212"/>
</svg>
