<svg width="24" height="24" viewBox="0 0 24 24" fill="none" xmlns="http://www.w3.org/2000/svg">
<path d="M20.9856 17.1439C20.6529 17.9125 20.2591 18.62 19.8028 19.2704C19.1809 20.1571 18.6717 20.7709 18.2792 21.1118C17.6709 21.6712 17.0191 21.9578 16.3211 21.974C15.82 21.974 15.2158 21.8315 14.5124 21.5422C13.8066 21.2543 13.1581 21.1118 12.5651 21.1118C11.9432 21.1118 11.2762 21.2543 10.5627 21.5422C9.84817 21.8315 9.27255 21.9822 8.83245 21.9971C8.16313 22.0256 7.49599 21.731 6.83006 21.1118C6.40503 20.7411 5.87341 20.1055 5.23654 19.2052C4.55324 18.2438 3.99146 17.129 3.55136 15.858C3.08003 14.4851 2.84375 13.1557 2.84375 11.8687C2.84375 10.3944 3.16232 9.1228 3.8004 8.05724C4.30188 7.20134 4.96903 6.52618 5.80402 6.03054C6.639 5.5349 7.5412 5.28232 8.5128 5.26616C9.04442 5.26616 9.74158 5.43061 10.6079 5.75379C11.4718 6.07807 12.0266 6.24251 12.2698 6.24251C12.4516 6.24251 13.0678 6.05023 14.1125 5.66689C15.1003 5.31138 15.9341 5.16418 16.6171 5.22217C18.468 5.37154 19.8585 6.10115 20.7832 7.41562C19.1279 8.41858 18.3091 9.82335 18.3254 11.6255C18.3403 13.0291 18.8496 14.1972 19.8503 15.1247C20.3039 15.5551 20.8104 15.8878 21.3739 16.1241C21.2517 16.4785 21.1227 16.818 20.9856 17.1439ZM16.7407 0.440106C16.7407 1.54031 16.3388 2.56756 15.5376 3.51838C14.5707 4.64872 13.4013 5.30188 12.1331 5.19881C12.117 5.06682 12.1076 4.9279 12.1076 4.78193C12.1076 3.72574 12.5674 2.5954 13.3839 1.6712C13.7916 1.20326 14.31 0.814173 14.9387 0.503792C15.5661 0.198042 16.1595 0.0289553 16.7176 0C16.7339 0.14708 16.7407 0.294169 16.7407 0.440091V0.440106Z" fill="#121212"/>
</svg>
