<svg width="24" height="24" viewBox="0 0 24 24" fill="none" xmlns="http://www.w3.org/2000/svg">
<path d="M21.9992 11.2345C21.9992 10.5412 21.943 9.84416 21.8231 9.16211H12.2031V13.0895H17.712C17.4834 14.3562 16.7489 15.4767 15.6733 16.1887V18.737H18.9599C20.8899 16.9607 21.9992 14.3374 21.9992 11.2345Z" fill="#4285F4"/>
<path d="M12.2038 21.1996C14.9545 21.1996 17.2743 20.2965 18.9644 18.7375L15.6778 16.1892C14.7634 16.8113 13.5829 17.1636 12.2076 17.1636C9.54684 17.1636 7.29083 15.3685 6.48136 12.9551H3.08984V15.5821C4.8212 19.0261 8.34763 21.1996 12.2038 21.1996Z" fill="#34A853"/>
<path d="M6.47658 12.9558C6.04937 11.6891 6.04937 10.3175 6.47658 9.05085V6.42383H3.08882C1.64227 9.30568 1.64227 12.7009 3.08882 15.5828L6.47658 12.9558Z" fill="#FBBC04"/>
<path d="M12.2038 4.83756C13.6579 4.81507 15.0632 5.36221 16.1163 6.36655L19.0281 3.45472C17.1843 1.72336 14.7372 0.771488 12.2038 0.801469C8.34763 0.801469 4.8212 2.97504 3.08984 6.42276L6.47761 9.04978C7.28333 6.63263 9.54309 4.83756 12.2038 4.83756Z" fill="#EA4335"/>
</svg>
