<svg width="24" height="24" viewBox="0 0 24 24" fill="none" xmlns="http://www.w3.org/2000/svg">
<path d="M16.0007 7.00053C16.0007 6.44825 16.4484 6.00053 17.0007 6.00053C17.553 6.00053 18.0007 6.44825 18.0007 7.00053C18.0007 7.55282 17.553 8.00053 17.0007 8.00053C16.4484 8.00053 16.0007 7.55282 16.0007 7.00053Z" fill="#121212"/>
<path fill-rule="evenodd" clip-rule="evenodd" d="M12.0007 7.25053C9.37732 7.25053 7.25067 9.37718 7.25067 12.0005C7.25067 14.6239 9.37732 16.7505 12.0007 16.7505C14.624 16.7505 16.7507 14.6239 16.7507 12.0005C16.7507 9.37718 14.624 7.25053 12.0007 7.25053ZM8.75067 12.0005C8.75067 10.2056 10.2057 8.75053 12.0007 8.75053C13.7956 8.75053 15.2507 10.2056 15.2507 12.0005C15.2507 13.7955 13.7956 15.2505 12.0007 15.2505C10.2057 15.2505 8.75067 13.7955 8.75067 12.0005Z" fill="#121212"/>
<path fill-rule="evenodd" clip-rule="evenodd" d="M17.2589 2.83355C13.7924 2.44611 10.209 2.44611 6.74244 2.83355C4.73038 3.05843 3.10605 4.64344 2.8695 6.66597C2.45496 10.2103 2.45496 13.7908 2.8695 17.3351C3.10605 19.3576 4.73038 20.9426 6.74244 21.1675C10.209 21.555 13.7924 21.555 17.2589 21.1675C19.271 20.9426 20.8953 19.3576 21.1319 17.3351C21.5464 13.7908 21.5464 10.2103 21.1319 6.66597C20.8953 4.64344 19.271 3.05843 17.2589 2.83355ZM6.90905 4.32427C10.2649 3.9492 13.7365 3.9492 17.0923 4.32427C18.4224 4.47293 19.4879 5.52254 19.642 6.84022C20.043 10.2687 20.043 13.7323 19.642 17.1609C19.4879 18.4785 18.4224 19.5281 17.0923 19.6768C13.7365 20.0519 10.2649 20.0519 6.90905 19.6768C5.57894 19.5281 4.51346 18.4785 4.35934 17.1609C3.95834 13.7323 3.95834 10.2687 4.35934 6.84022C4.51346 5.52254 5.57894 4.47293 6.90905 4.32427Z" fill="#121212"/>
</svg>
